<svg id="outline_expand" enable-background="new 0 0 512 512" height="512" viewBox="0 0 512 512" width="512" xmlns="http://www.w3.org/2000/svg"><g><path d="m483.026 184.327-.614-1.892c-7.673-23.63-15.606-48.064-30.618-68.692-14.9-20.473-35.399-35.39-55.223-49.815l-1.845-1.343c-19.559-14.238-39.783-28.961-63.927-36.801-23.973-7.784-49.812-7.784-74.799-7.784s-50.826 0-74.8 7.784c-24.145 7.839-44.37 22.563-63.929 36.802l-1.846 1.343c-19.822 14.425-40.32 29.341-55.22 49.813-15.012 20.628-22.945 45.062-30.618 68.692l-.614 1.893c-7.361 22.653-14.973 46.077-14.973 71.673s7.612 49.02 14.974 71.673l.614 1.892c7.673 23.63 15.606 48.064 30.618 68.692 14.9 20.473 35.399 35.39 55.223 49.815l1.845 1.343c19.559 14.238 39.783 28.961 63.927 36.801 23.973 7.784 49.812 7.784 74.799 7.784s50.826 0 74.8-7.784c24.146-7.84 44.372-22.565 63.932-36.805l1.84-1.339c19.823-14.426 40.322-29.342 55.222-49.815 15.013-20.628 22.946-45.062 30.619-68.692l.614-1.893c7.361-22.652 14.973-46.076 14.973-71.672s-7.612-49.02-14.974-71.673zm-15.216 138.4-.616 1.896c-7.286 22.441-14.82 45.646-28.338 64.218-13.415 18.435-32.877 32.597-51.698 46.293l-1.842 1.34c-18.55 13.504-37.73 27.468-59.457 34.522-21.566 7.004-46.117 7.004-69.859 7.004s-48.293 0-69.858-7.002c-21.725-7.054-40.903-21.016-59.451-34.518l-1.848-1.345c-18.821-13.696-38.283-27.859-51.699-46.293-13.516-18.572-21.051-41.777-28.337-64.218l-.616-1.896c-6.977-21.468-14.191-43.666-14.191-66.728 0-23.061 7.214-45.259 14.19-66.727l.616-1.896c7.286-22.441 14.82-45.646 28.337-64.218 13.415-18.434 32.876-32.596 51.696-46.292l1.848-1.345c18.549-13.503 37.729-27.466 59.454-34.52 21.566-7.002 46.117-7.002 69.859-7.002s48.293 0 69.858 7.002c21.725 7.054 40.903 21.016 59.451 34.518l1.848 1.345c18.821 13.696 38.283 27.859 51.699 46.293 13.516 18.572 21.051 41.777 28.337 64.218l.616 1.896c6.977 21.468 14.191 43.666 14.191 66.728 0 23.061-7.214 45.259-14.19 66.727z"/><path d="m317.227 427.497c-1.667.538-3.333 1.076-4.997 1.617-1.975.644-3.957 1.299-5.947 1.957-16.249 5.373-33.051 10.929-50.283 10.929s-34.034-5.556-50.282-10.929c-1.99-.658-3.973-1.313-5.947-1.957-1.664-.542-3.33-1.079-4.997-1.617-17.661-5.699-34.342-11.082-48.048-21.065-13.648-9.943-24.21-24.553-34.423-38.682-1.168-1.615-2.333-3.228-3.501-4.831-1.208-1.658-2.428-3.317-3.649-4.981-10.231-13.924-20.812-28.322-26.07-44.469-5.181-15.91-5.137-33.567-5.091-52.261.004-1.734.008-3.471.008-5.208s-.004-3.474-.009-5.208c-.046-18.693-.09-36.35 5.091-52.26 5.259-16.147 15.839-30.546 26.07-44.47 1.222-1.664 2.441-3.323 3.648-4.98 1.169-1.604 2.334-3.217 3.502-4.832 10.213-14.129 20.774-28.739 34.423-38.682 4.784-3.485 10.222-6.613 16.622-9.562l-6.695-14.531c-7.371 3.396-13.699 7.047-19.347 11.161-15.706 11.441-27.024 27.099-37.97 42.241-1.156 1.599-2.311 3.195-3.468 4.784-1.194 1.641-2.4 3.282-3.609 4.927-10.98 14.943-22.335 30.396-28.39 48.989-5.974 18.345-5.925 38.125-5.878 57.254.006 1.722.01 3.445.01 5.169s-.004 3.447-.009 5.168c-.047 19.129-.096 38.91 5.878 57.255 6.055 18.593 17.409 34.045 28.39 48.989 1.209 1.646 2.415 3.287 3.61 4.927 1.156 1.588 2.311 3.185 3.467 4.784 10.945 15.143 22.264 30.8 37.97 42.241 15.775 11.492 34.473 17.525 52.555 23.359 1.653.533 3.306 1.067 4.955 1.604 1.953.636 3.912 1.284 5.879 1.934 17.451 5.772 35.495 11.739 55.305 11.739s37.854-5.967 55.306-11.738c1.967-.65 3.926-1.298 5.879-1.934 1.649-.537 3.302-1.071 4.955-1.604 18.082-5.834 36.779-11.868 52.555-23.359l-9.42-12.933c-13.707 9.983-30.387 15.366-48.048 21.065z"/><path d="m448.131 193.577c-6.055-18.594-17.409-34.046-28.39-48.989-1.209-1.646-2.415-3.287-3.61-4.927-1.156-1.588-2.311-3.185-3.467-4.784-10.945-15.143-22.264-30.801-37.97-42.241-15.775-11.492-34.473-17.525-52.555-23.359-1.653-.534-3.306-1.067-4.955-1.604-1.953-.636-3.912-1.284-5.879-1.934-17.451-5.772-35.495-11.739-55.305-11.739s-37.854 5.967-55.306 11.738c-1.967.65-3.926 1.298-5.878 1.934-1.649.537-3.301 1.07-4.953 1.603-5.43 1.752-11.045 3.564-16.54 5.516l5.354 15.078c5.277-1.874 10.778-3.649 16.1-5.366 1.666-.538 3.332-1.075 4.994-1.616 1.975-.644 3.957-1.299 5.947-1.957 16.248-5.374 33.05-10.93 50.282-10.93s34.034 5.556 50.282 10.929c1.99.658 3.973 1.313 5.947 1.957 1.663.542 3.33 1.079 4.997 1.617 17.661 5.699 34.342 11.082 48.048 21.065 13.648 9.943 24.21 24.553 34.423 38.682 1.168 1.615 2.333 3.228 3.501 4.831 1.208 1.658 2.428 3.317 3.649 4.981 10.231 13.924 20.812 28.322 26.07 44.469 5.181 15.91 5.137 33.567 5.091 52.261-.004 1.734-.008 3.471-.008 5.208s.004 3.474.009 5.208c.046 18.693.09 36.35-5.091 52.26-5.259 16.147-15.839 30.545-26.07 44.47-1.222 1.664-2.441 3.323-3.648 4.98-1.169 1.604-2.335 3.218-3.503 4.833-6.746 9.332-13.722 18.98-21.499 27.176l11.605 11.014c8.513-8.97 15.807-19.059 22.86-28.816 1.156-1.6 2.311-3.197 3.469-4.787 1.194-1.64 2.4-3.281 3.609-4.927 10.98-14.943 22.335-30.396 28.39-48.989 5.974-18.345 5.925-38.125 5.878-57.254-.005-1.721-.009-3.444-.009-5.168s.004-3.447.009-5.168c.047-19.13.095-38.911-5.878-57.255z"/><path d="m269.894 117.243c-7.999-11.436-15.56-22.235-38.003-19.115-8.654 1.204-15.244 5.645-18.556 12.503-4.122 8.54-2.792 19.7 3.65 30.619 1.034 1.752 2.007 3.432 2.936 5.036 9.087 15.692 15.945 27.542 36.002 27.542 2.686 0 5.612-.213 8.808-.657 10.854-1.51 18.878-7.212 22.017-15.646 1.898-5.102 3.453-15.518-7.462-27.959-3.82-4.355-6.78-8.588-9.392-12.323zm1.858 34.701c-1.007 2.705-4.455 4.716-9.225 5.379-.001 0-.001 0-.001 0-16.411 2.281-19.022-2.24-28.76-19.055-.949-1.641-1.943-3.357-3.001-5.149-3.515-5.957-4.7-12.054-3.021-15.532.35-.723 1.412-2.924 6.352-3.611 2.059-.287 3.85-.433 5.438-.433 8.247 0 11.016 3.958 17.249 12.871 2.848 4.072 6.076 8.688 10.476 13.703 3.969 4.525 5.606 8.836 4.493 11.827z"/><path d="m240.916 392.718c9.085 15.69 15.946 27.541 35.999 27.541 2.687 0 5.611-.213 8.81-.658 10.853-1.51 18.877-7.213 22.016-15.646 1.897-5.101 3.453-15.517-7.46-27.958-3.819-4.354-6.78-8.587-9.392-12.321-7.998-11.436-15.56-22.234-38.002-19.114-8.653 1.204-15.243 5.644-18.555 12.502-4.062 8.414-2.698 19.859 3.648 30.618 1.035 1.752 2.007 3.432 2.936 5.036zm7.825-28.698c.349-.723 1.412-2.924 6.351-3.611 2.059-.287 3.85-.433 5.438-.433 8.246 0 11.014 3.957 17.247 12.869 2.848 4.072 6.075 8.688 10.474 13.703 3.97 4.524 5.606 8.835 4.493 11.828-1.006 2.705-4.455 4.715-9.225 5.379-16.403 2.286-19.021-2.237-28.757-19.053-.95-1.641-1.944-3.358-3.001-5.149-3.514-5.958-4.699-12.055-3.02-15.533z"/><path d="m165.033 206.882c-2.936-1.245-5.871-2.669-9.239-4.483l-7.588 14.086c3.815 2.056 7.178 3.685 10.582 5.128 5.542 2.349 8.892 5.519 9.189 8.698.27 2.873-1.962 6.184-5.969 8.855-13.78 9.186-18.103 6.254-34.184-4.656-1.568-1.064-3.211-2.179-4.941-3.332-5.755-3.837-9.474-8.812-9.474-12.674 0-.803 0-3.247 4.148-6.013 8.324-5.549 12.236-4.895 15.825-3.653l5.232-15.12c-9.895-3.426-19.129-1.743-29.933 5.46-7.271 4.847-11.273 11.71-11.273 19.326 0 9.482 6.05 18.954 16.599 25.986 1.692 1.129 3.299 2.219 4.833 3.26 10.426 7.073 19.077 12.944 29.445 12.944 6.554 0 13.793-2.346 22.597-8.216 9.117-6.078 13.864-14.703 13.023-23.662-.506-5.419-3.634-15.475-18.872-21.934z"/><path d="m237.629 249.65c-2.158 4.015-4.604 8.564-7.891 13.335-9.388 13.631-6.628 23.794-4.147 28.639 4.102 8.01 12.736 12.737 23.691 12.97.562.012 1.112.018 1.656.018 25.903 0 31.723-13.463 39.711-31.949.735-1.702 1.505-3.483 2.327-5.344 5.124-11.597 5.143-22.836.052-30.835-4.089-6.425-11.152-10.066-19.888-10.251-22.649-.486-28.903 11.126-35.511 23.417zm35.172-7.422c4.985.106 6.298 2.168 6.729 2.846 2.074 3.258 1.607 9.452-1.188 15.779-.841 1.902-1.628 3.723-2.38 5.463-7.708 17.839-9.782 22.637-26.34 22.282-4.814-.103-8.474-1.697-9.789-4.266-1.455-2.841-.331-7.314 3.083-12.271 3.784-5.494 6.451-10.456 8.805-14.833 6.143-11.424 8.186-15.268 21.08-15z"/><path d="m371.999 253.039c-12.073-3.19-23.461-1.398-30.458 4.792-5.704 5.046-8.193 12.591-7.009 21.246 2.451 17.908 10.798 24.618 22.576 29.183l5.783-14.919c-7.532-2.919-10.991-5.356-12.508-16.434-.676-4.94 1.156-6.56 1.758-7.093 2.895-2.56 9.088-3.071 15.771-1.307 2.011.531 3.933 1.022 5.77 1.492 18.82 4.809 23.878 6.102 26.123 22.503.652 4.771-.35 8.636-2.682 10.339-2.579 1.882-7.172 1.476-12.602-1.115-1.771-.847-3.559-1.641-5.462-2.429l-6.119 14.783c1.639.679 3.172 1.36 4.688 2.083 5.948 2.84 11.05 3.863 15.314 3.863 6.441 0 10.971-2.333 13.615-4.264 7.269-5.307 10.584-14.576 9.099-25.43-3.703-27.068-18.095-30.746-38.014-35.836-1.795-.457-3.676-.937-5.643-1.457z"/><path d="m345.018 193.604c-7.69 3.73-13.468 10.232-16.269 18.308s-2.289 16.759 1.44 24.449l14.396-6.982c-1.865-3.845-2.121-8.187-.721-12.224 1.4-4.038 4.289-7.289 8.135-9.154 7.938-3.851 17.529-.524 21.378 7.414l14.396-6.982c-7.699-15.877-26.879-22.529-42.755-14.829z"/><path d="m190.185 191.092c9.273 4.839 12.709 8.842 16.688 13.477 4.416 5.145 9.422 10.976 21.426 17.24l7.402-14.186c-9.273-4.838-12.709-8.841-16.688-13.476-4.416-5.145-9.422-10.976-21.426-17.239z"/><path d="m286.908 181.324 5.564 15.001c12.695-4.708 18.393-9.866 23.419-14.416 4.528-4.099 8.439-7.639 18.245-11.276l-5.564-15.001c-12.694 4.708-18.392 9.866-23.418 14.416-4.529 4.098-8.439 7.639-18.246 11.276z"/><path d="m192.537 377.085c4.528-4.099 8.438-7.639 18.245-11.276l-5.564-15.001c-12.694 4.708-18.392 9.865-23.419 14.416-4.528 4.099-8.438 7.639-18.245 11.276l5.564 15.001c12.694-4.709 18.392-9.866 23.419-14.416z"/><path d="m152 144h16v16h-16z"/><path d="m312 112h16v16h-16z"/><path d="m170.646 342.534c9.356-14.96 4.798-34.743-10.161-44.1-7.247-4.533-15.827-5.972-24.154-4.052-8.329 1.919-15.412 6.967-19.944 14.214l13.565 8.484c2.266-3.624 5.808-6.147 9.972-7.107 4.167-.961 8.454-.24 12.077 2.026 7.479 4.678 9.759 14.57 5.08 22.05z"/><path d="m318.873 348.569c4.416 5.145 9.422 10.976 21.426 17.24l7.402-14.186c-9.273-4.838-12.709-8.841-16.688-13.476-4.416-5.145-9.422-10.976-21.426-17.239l-7.402 14.185c9.273 4.838 12.709 8.841 16.688 13.476z"/><path d="m360 160h32v16h-32z"/><path d="m96 264h16v16h-16z"/><path d="m128 344h16v16h-16z"/><path d="m184 264h16v16h-16z"/><path d="m400 232h16v16h-16z"/><path d="m368 344h16v16h-16z"/><path d="m304 280h16v16h-16z"/><path d="m256 192h16v16h-16z"/><path d="m224 312h16v16h-16z"/></g></svg>