<svg width="43" height="44" viewBox="0 0 43 44" fill="none" xmlns="http://www.w3.org/2000/svg">
<path d="M34.9712 10.3808C34.5114 7.64857 33.1585 5.15505 31.0895 3.2628C28.7905 1.15834 25.8018 0 22.6893 0C20.2842 0 17.941 0.689698 15.9338 1.98951C14.2626 3.06827 12.8744 4.52724 11.8929 6.24264C11.4684 6.16306 11.0263 6.11885 10.5842 6.11885C6.82624 6.11885 3.76681 9.17828 3.76681 12.9362C3.76681 13.4226 3.81986 13.8912 3.90829 14.351C1.47666 16.1195 0 18.9667 0 21.9996C0 24.4489 0.910755 26.8275 2.5731 28.7109C4.27966 30.6385 6.53444 31.7791 8.93954 31.9118C8.96607 31.9118 8.98376 31.9118 9.01028 31.9118H16.6146C17.2778 31.9118 17.8083 31.3812 17.8083 30.7181C17.8083 30.0549 17.2778 29.5243 16.6146 29.5243H9.04565C5.42916 29.3033 2.38742 25.8636 2.38742 21.9907C2.38742 19.4884 3.73144 17.154 5.8978 15.8896C6.40181 15.5978 6.61402 14.9877 6.41949 14.4394C6.24265 13.9619 6.15423 13.4579 6.15423 12.9186C6.15423 10.4781 8.14374 8.48858 10.5842 8.48858C11.1059 8.48858 11.6188 8.577 12.0962 8.75385C12.6798 8.96606 13.3253 8.7008 13.5906 8.14373C15.2441 4.63335 18.8164 2.36973 22.6981 2.36973C27.9151 2.36973 32.2213 6.27801 32.7164 11.4596C32.7695 11.999 33.1762 12.4322 33.7068 12.5207C37.6416 13.1927 40.6126 16.8268 40.6126 20.9739C40.6126 25.3685 37.1553 29.1883 32.8933 29.5155H26.3765C25.7133 29.5155 25.1828 30.046 25.1828 30.7092C25.1828 31.3724 25.7133 31.9029 26.3765 31.9029H32.9375C32.964 31.9029 32.9905 31.9029 33.0259 31.9029C35.7228 31.7084 38.2429 30.4705 40.1174 28.4014C41.9831 26.35 43 23.715 43 20.9739C42.9912 16.0134 39.6046 11.6011 34.9712 10.3808Z" fill="white"/>
<path d="M14.3422 35.6146C13.8735 36.0833 13.8735 36.8349 14.3422 37.3035L20.6644 43.6257C20.8855 43.8468 21.1949 43.9794 21.5044 43.9794C21.8139 43.9794 22.1234 43.8556 22.3444 43.6257L28.6667 37.3035C29.1353 36.8349 29.1353 36.0833 28.6667 35.6146C28.4368 35.3847 28.1273 35.2609 27.8267 35.2609C27.526 35.2609 27.2165 35.3759 26.9866 35.6146L22.6981 39.9031L22.6981 20.1937C22.6981 19.5305 22.1676 19 21.5044 19C20.8413 19 20.3107 19.5305 20.3107 20.1937L20.3107 39.9031L16.0222 35.6146C15.5624 35.146 14.8108 35.146 14.3422 35.6146Z" fill="white"/>
</svg>
